<svg xmlns="http://www.w3.org/2000/svg" viewBox="0 0 407.98 192.54"><defs><style>.cls-1{fill:#fff;}.cls-2{fill:#999;}.cls-3{fill:#0071bc;}.cls-4{fill:#c1272d;}</style></defs><title>add - chi</title><g id="Layer_2" data-name="Layer 2"><g id="Layer_1-2" data-name="Layer 1"><path class="cls-1" d="M65,151.54a382.36,382.36,0,0,1-59.6,22.2L0,152.34c7.8-1.6,15.6-3.4,23.2-5.6V82.34H2.6V61.94H23.2V12H43.8v50H62.4v20.4H43.8v57.6c7.2-2.8,14.2-6,21.2-9.2Zm112.6-27.2c-2.4,9-11.6,13.6-27.8,13.6H149l-6-20.4c4.2.2,8,.4,11.2.4s5-2,5.8-6c.4-3.4.8-16,1-37.8l-22.4,6.6v72.4h-20V86.74L96,93.54v71.4c0,5.4,3,8.2,9.4,8.2h53a6.94,6.94,0,0,0,6.6-4.2c1.6-2.8,2.8-11.4,3.4-25.8l19.4,6c-1.6,21.2-4.4,33.8-8.4,37.6-3.8,3.8-9.4,5.8-17,5.8H99q-23.4,0-23.4-23.4V99.74l-12.8,3.8V83.14l12.8-4V31.55H96V72.94l22.6-7V11.15h20v48.6l42.4-13C181,89.34,179.8,115.14,177.6,124.34Z"/><path class="cls-1" d="M269,154.94a519.28,519.28,0,0,1-63.8,17.8l-5.8-22.2c8.4-1.2,16.6-2.8,24.6-4.6V80.84H201v-20h23v-49h21v49h22v20H245v59.4c8.07-2.4,16.13-4.8,24-7.6Z"/><path class="cls-2" d="M335.71,0,346.3,60.07,380.77,54l3.47,19.7-34.46,6.08,13.37,75.83,41.36-7.29L408,168l-126,22.23-3.48-19.7,20.69-3.64L279,52.65,299.67,49l20.15,114.24,22.65-4L315,3.65Z"/><rect class="cls-3" x="340.62" y="71.01" width="11" height="97" transform="translate(-15.49 61.92) rotate(-10)"/><rect class="cls-3" x="335.34" y="150.69" width="11" height="39" transform="translate(232.42 535.41) rotate(-100)"/><circle class="cls-1" cx="321.64" cy="173.58" r="15.5"/><circle class="cls-3" cx="321.64" cy="173.58" r="10.5"/><rect class="cls-3" x="337.62" y="59.79" width="11" height="22" transform="translate(332.98 420.99) rotate(-100)"/><path class="cls-4" d="M348.53,27.84h0a14,14,0,0,0-14,14,13.84,13.84,0,0,0,2.05,7.27c4,6.57,8.13,13.08,11.57,20l.38.76h0l.39-.76c3.44-6.89,7.55-13.4,11.57-20a13.8,13.8,0,0,0,2-7.27A14,14,0,0,0,348.53,27.84Zm0,21a7,7,0,1,1,7-7A7,7,0,0,1,348.53,48.83Z"/><circle class="cls-1" cx="348.53" cy="41.83" r="7"/></g></g></svg>