<svg xmlns="http://www.w3.org/2000/svg" viewBox="0 0 623.68 183.17"><defs><style>.cls-1{fill:#fff;}.cls-2{fill:#999;}.cls-3{fill:#0071bc;}.cls-4{fill:#c1272d;}</style></defs><title>Asset 2</title><g id="Layer_2" data-name="Layer 2"><g id="Layer_1-2" data-name="Layer 1"><path class="cls-1" d="M0,160.12l31.71-142H48.66l31.71,142h-20l-6.08-31H26.1l-6.07,31Zm50.37-50-10.08-52h-.4l-10.08,52Z"/><path class="cls-1" d="M90.68,160.12v-142h30.2q17.6,0,26.7,9.58t9.1,27.12v66.41q0,20-9.71,29.42t-27.89,9.47Zm20-123v104H120q8.53,0,12.1-4.3t3.58-13.5V54.72q0-8.4-3.38-13T120,37.12Z"/><path class="cls-1" d="M175.68,160.12v-142h30.2q17.6,0,26.7,9.58t9.1,27.12v66.41q0,20-9.71,29.42t-27.89,9.47Zm21-123v104H206q8.53,0,12.1-4.3t3.58-13.5V54.72q0-8.4-3.38-13T206,37.12Z"/><path class="cls-1" d="M260.68,160.12v-142h32.7q35.91,0,35.9,41.69,0,12.56-3.89,21.34T311.73,95.31l21.94,64.81h-22.4l-18.63-61h-12v61Zm21-123v44h11.49a20.33,20.33,0,0,0,8.52-1.48,11.56,11.56,0,0,0,5-4.26,19.6,19.6,0,0,0,2.18-6.84,65.35,65.35,0,0,0,.59-9.42,65.3,65.3,0,0,0-.59-9.41,19,19,0,0,0-2.38-7q-3.76-5.54-14.27-5.55Z"/><path class="cls-1" d="M542.68,59.12h-21V54.54a21.52,21.52,0,0,0-3.33-12.06Q515,37.4,507.16,37.39A13.12,13.12,0,0,0,500.3,39a13.49,13.49,0,0,0-4.23,4,16.75,16.75,0,0,0-2.22,5.88,38.21,38.21,0,0,0-.6,6.88,67,67,0,0,0,.3,7,13.3,13.3,0,0,0,1.51,5,11.1,11.1,0,0,0,3.53,3.78,31.78,31.78,0,0,0,6.35,3.19l15.73,6.18a39.43,39.43,0,0,1,11.09,6.08A26.36,26.36,0,0,1,538.41,95a37.44,37.44,0,0,1,3,10.86,105.94,105.94,0,0,1,.81,13.86,72.17,72.17,0,0,1-1.81,16.64,34.86,34.86,0,0,1-5.85,13.06,28.9,28.9,0,0,1-11.09,8.77q-6.86,3.18-16.73,3.19a37.14,37.14,0,0,1-13.92-2.59,33.08,33.08,0,0,1-11.08-7.18A34.63,34.63,0,0,1,474.4,141a32,32,0,0,1-2.72-13.26v-7.58h21v6.38A16.45,16.45,0,0,0,496,136.57q3.33,4.49,11.19,4.49a18.18,18.18,0,0,0,8.17-1.5,10.78,10.78,0,0,0,4.53-4.29,15.49,15.49,0,0,0,1.92-6.67c.2-2.59.3-5.49.3-8.68a85,85,0,0,0-.4-9.17A15.85,15.85,0,0,0,520.1,105a11.41,11.41,0,0,0-3.73-3.58,48.19,48.19,0,0,0-6.15-3l-14.72-6Q482.2,87,477.66,78.16t-4.54-22.23a51,51,0,0,1,2.22-15.15A34.23,34.23,0,0,1,482,28.42a30.48,30.48,0,0,1,10.79-8.27,36.3,36.3,0,0,1,15.62-3.09,34.43,34.43,0,0,1,14,2.79,36.15,36.15,0,0,1,11,7.38q9.27,9.57,9.28,21.93Z"/><path class="cls-1" d="M623.68,59.12h-21V54.54a21.52,21.52,0,0,0-3.33-12.06Q596,37.4,588.16,37.39A13.12,13.12,0,0,0,581.3,39a13.49,13.49,0,0,0-4.23,4,16.75,16.75,0,0,0-2.22,5.88,38.21,38.21,0,0,0-.6,6.88,67,67,0,0,0,.3,7,13.3,13.3,0,0,0,1.51,5,11.1,11.1,0,0,0,3.53,3.78,31.78,31.78,0,0,0,6.35,3.19l15.73,6.18a39.43,39.43,0,0,1,11.09,6.08A26.36,26.36,0,0,1,619.41,95a37.44,37.44,0,0,1,3,10.86,105.94,105.94,0,0,1,.81,13.86,72.17,72.17,0,0,1-1.81,16.64,34.86,34.86,0,0,1-5.85,13.06,28.9,28.9,0,0,1-11.09,8.77q-6.86,3.18-16.73,3.19a37.14,37.14,0,0,1-13.92-2.59,33.08,33.08,0,0,1-11.08-7.18A34.63,34.63,0,0,1,555.4,141a32,32,0,0,1-2.72-13.26v-7.58h21v6.38A16.45,16.45,0,0,0,577,136.57q3.33,4.49,11.19,4.49a18.18,18.18,0,0,0,8.17-1.5,10.78,10.78,0,0,0,4.53-4.29,15.49,15.49,0,0,0,1.92-6.67c.2-2.59.3-5.49.3-8.68a85,85,0,0,0-.4-9.17A15.85,15.85,0,0,0,601.1,105a11.41,11.41,0,0,0-3.73-3.58,48.19,48.19,0,0,0-6.15-3l-14.72-6Q563.19,87,558.66,78.16t-4.54-22.23a51,51,0,0,1,2.22-15.15A34.23,34.23,0,0,1,563,28.42a30.48,30.48,0,0,1,10.79-8.27,36.3,36.3,0,0,1,15.62-3.09,34.43,34.43,0,0,1,14,2.79,36.15,36.15,0,0,1,11,7.38q9.27,9.57,9.28,21.93Z"/><polyline class="cls-2" points="386.69 102.99 397.56 143.56 377.27 149 382.45 168.32 402.73 162.88 408.17 183.17 428.45 177.73 423.02 157.45 461.65 147.09 456.48 127.78 417.84 138.13 406.97 97.56 440.78 88.5 435.86 70.15 402.05 79.21 391.18 38.64 429.82 28.28 424.9 9.93 386.27 20.28 380.83 0 360.55 5.43 365.98 25.72 345.7 31.16 350.61 49.51 370.9 44.07 381.77 84.64"/><rect class="cls-3" x="401.43" y="69.24" width="11" height="37" transform="translate(427.5 503.5) rotate(-105)"/><path class="cls-4" d="M419.18,42.63h0a14,14,0,0,0-14,14,13.83,13.83,0,0,0,2,7.27c4,6.57,8.13,13.08,11.57,20l.39.76h0l.38-.76c3.44-6.89,7.55-13.4,11.57-20a13.81,13.81,0,0,0,2.05-7.27A14,14,0,0,0,419.18,42.63Zm0,21a7,7,0,1,1,7-7A7,7,0,0,1,419.18,63.62Z"/><circle class="cls-1" cx="419.18" cy="56.62" r="7"/><rect class="cls-3" x="398.06" y="89.39" width="11" height="72" transform="translate(-18.7 108.72) rotate(-15)"/><circle class="cls-1" cx="412.88" cy="160.16" r="15.5"/><circle class="cls-3" cx="412.88" cy="160.16" r="10.5"/></g></g></svg>