<svg xmlns="http://www.w3.org/2000/svg" viewBox="0 0 367.07 400"><defs><style>.cls-1{fill:none;stroke:#000;stroke-linecap:round;stroke-linejoin:round;stroke-width:40px;}</style></defs><title>ChiEng_1</title><g id="Layer_2" data-name="Layer 2"><g id="Layer_1-2" data-name="Layer 1"><path d="M160,80a20,20,0,0,1,0,40H60a20,20,0,0,1,0-40H160m0-40H60a60,60,0,0,0,0,120H160a60,60,0,0,0,0-120Z"/><line class="cls-1" x1="110" y1="20" x2="110" y2="200"/><path class="cls-1" d="M347.07,220h-30a80,80,0,0,0-80,80h0a80,80,0,0,0,80,80h30"/><line class="cls-1" x1="257.07" y1="300" x2="327.07" y2="300"/><line class="cls-1" x1="157.12" y1="253.18" x2="263.18" y2="147.12"/></g></g></svg>