<svg xmlns="http://www.w3.org/2000/svg" viewBox="0 0 365.66 400"><defs><style>.cls-1{fill:none;stroke:#000;stroke-linecap:round;stroke-linejoin:round;stroke-width:40px;}</style></defs><title>ChiEng</title><g id="Layer_2" data-name="Layer 2"><g id="Layer_1-2" data-name="Layer 1"><path d="M160,80a20,20,0,0,1,0,40H60a20,20,0,0,1,0-40H160m0-40H60a60,60,0,0,0,0,120H160a60,60,0,0,0,0-120Z"/><line class="cls-1" x1="110" y1="20" x2="110" y2="200"/><path class="cls-1" d="M345.66,220h-30a80,80,0,0,0-80,80h0a80,80,0,0,0,80,80h30"/><line class="cls-1" x1="255.66" y1="300" x2="325.66" y2="300"/><line class="cls-1" x1="110" y1="300" x2="270" y2="140"/></g></g></svg>