<svg xmlns="http://www.w3.org/2000/svg" viewBox="0 0 768.66 233.6"><defs><style>.cls-1{font-size:200px;font-family:DINCondensed-Bold, DIN Condensed;font-weight:700;}.cls-2{letter-spacing:-0.05em;}.cls-3{fill:#e98b2a;}</style></defs><title>contact - eng</title><g id="Layer_2" data-name="Layer 2"><g id="Layer_1-2" data-name="Layer 1"><text class="cls-1" transform="translate(106.47 171.2)">ON<tspan class="cls-2" x="174" y="0">T</tspan><tspan x="229.39" y="0">ACT US</tspan></text><path class="cls-3" d="M16.94,43.82h0A35.11,35.11,0,0,0,6.67,52.63,31.73,31.73,0,0,0,1,63.86a30.54,30.54,0,0,0-.68,12.4A34.43,34.43,0,0,0,4.76,88.72L44,156.62q4.89,8.49,10.73,12.39a30.91,30.91,0,0,0,12,5,27.88,27.88,0,0,0,12.16-.55,46.1,46.1,0,0,0,11-4.51c2.44-1.42-.52.3,7.27-4.2h0a4,4,0,0,0,1.46-5.47L92.69,149l-6.12-10.6-2.48-4.29-4.4-7.62-.86.5-18.19,10.5a4,4,0,0,1-5.46-1.47l-26.5-45.9a4,4,0,0,1,1.46-5.46l19-11h0l-4-6.93-4-6.93-5-8.66-6-10.39a4,4,0,0,0-5.46-1.46Z"/><path class="cls-3" d="M43.73,36l2.58-9.66A30,30,0,0,1,67.53,63.06l-9.66-2.59A20,20,0,0,0,43.73,36Z"/><path class="cls-3" d="M48.9,16.65,51.49,7A50,50,0,0,1,86.85,68.23l-9.66-2.59A40,40,0,0,0,48.9,16.65Z"/></g></g></svg>