<svg xmlns="http://www.w3.org/2000/svg" viewBox="0 0 824.87 225.06"><defs><style>.cls-1{font-size:200px;font-family:PingFangSC-Semibold-GBpc-EUC-H, PingFang SC;}.cls-2{fill:#e98b2a;}</style></defs><title>contact - sim</title><g id="Layer_2" data-name="Layer 2"><g id="Layer_1-2" data-name="Layer 1"><text class="cls-1" transform="translate(0 178.66)">联系我</text><path d="M670.6,21.46a245.47,245.47,0,0,1-20,44.4v134H629.8V95.66c-5.4,6.6-11.2,13-17.2,19.4l-6.8-21.4q30.9-34.5,45.8-81.2Zm19,26.8v151.2H669V48.26Z"/><path class="cls-2" d="M795.26,32h0a42.24,42.24,0,0,1,14.65,7,38,38,0,0,1,10,11.27,36.69,36.69,0,0,1,4.65,14.17,41.47,41.47,0,0,1-1.25,15.82L799,171.17q-3,11.37-8.6,17.71A37.15,37.15,0,0,1,778,198.37a33.6,33.6,0,0,1-14.27,3.14,54.66,54.66,0,0,1-14.18-1.82l-9.74-2.61h0a4.79,4.79,0,0,1-3.39-5.88l3.66-13.68,3.81-14.21,1.54-5.74,2.73-10.2,1.16.31,24.35,6.52a4.79,4.79,0,0,0,5.88-3.39L796,89.35a4.8,4.8,0,0,0-3.39-5.89l-25.51-6.83h0l2.48-9.28,2.49-9.28,3.1-11.59,3.73-13.92a4.8,4.8,0,0,1,5.88-3.39Z"/><path class="cls-2" d="M761.76,31.19l-6-10.4A36,36,0,0,0,742.57,70L753,64A24,24,0,0,1,761.76,31.19Z"/><path class="cls-2" d="M749.75,10.4l-6-10.4a60,60,0,0,0-22,82l10.39-6A48,48,0,0,1,749.75,10.4Z"/></g></g></svg>