<svg xmlns="http://www.w3.org/2000/svg" viewBox="0 0 826.64 229.75"><defs><style>.cls-1{font-size:200px;font-family:PingFangSC-Semibold-GBpc-EUC-H, PingFang SC;}.cls-2{fill:#e98b2a;}</style></defs><title>contact - tra</title><g id="Layer_2" data-name="Layer 2"><g id="Layer_1-2" data-name="Layer 1"><text class="cls-1" transform="translate(0 183.35)">聯繫我</text><path d="M613,122l-7.2-23C622,76,634,48.75,642,17.55l19,8.8a295.16,295.16,0,0,1-11.6,34v142.8H629.2v-104Q621.7,110.85,613,122Zm106.8-14H685v95.4H664.8v-178h55ZM700.2,43H685V58h15.2ZM685,90.35h15.2V74.55H685Z"/><path class="cls-2" d="M796.47,32.57h0a43.24,43.24,0,0,1,14.93,7.16,38.91,38.91,0,0,1,10.22,11.48,37.35,37.35,0,0,1,4.74,14.44,42.45,42.45,0,0,1-1.28,16.12l-24.82,92.64q-3.1,11.58-8.76,18a37.84,37.84,0,0,1-12.6,9.67,34,34,0,0,1-14.53,3.19,55.77,55.77,0,0,1-14.45-1.84L740,200.81h0a4.89,4.89,0,0,1-3.46-6l3.74-13.95,3.88-14.47,1.57-5.85,2.78-10.4,1.18.32,24.82,6.65a4.89,4.89,0,0,0,6-3.46L797.27,91a4.89,4.89,0,0,0-3.46-6l-26-7h0l2.54-9.46,2.53-9.45,3.17-11.81,3.8-14.18a4.89,4.89,0,0,1,6-3.46Z"/><path class="cls-2" d="M762.34,31.78l-6.12-10.59a36.69,36.69,0,0,0-13.43,50.13l10.59-6.12A24.46,24.46,0,0,1,762.34,31.78Z"/><path class="cls-2" d="M750.1,10.59,744,0A61.16,61.16,0,0,0,721.6,83.55l10.59-6.12A48.94,48.94,0,0,1,750.1,10.59Z"/></g></g></svg>