<svg xmlns="http://www.w3.org/2000/svg" viewBox="0 0 400 300"><defs><style>.cls-1{fill:none;stroke:#000;stroke-miterlimit:10;stroke-width:40px;}</style></defs><title>Asset 11</title><g id="Layer_2" data-name="Layer 2"><g id="Layer_1-2" data-name="Layer 1"><path d="M320,40a40.05,40.05,0,0,1,40,40V220a40.05,40.05,0,0,1-40,40H80a40.05,40.05,0,0,1-40-40V80A40.05,40.05,0,0,1,80,40H320m0-40H80A80,80,0,0,0,0,80V220a80,80,0,0,0,80,80H320a80,80,0,0,0,80-80V80A80,80,0,0,0,320,0Z"/><path class="cls-1" d="M45,49l107,80a80,80,0,0,0,96,0L360,45"/></g></g></svg>