<svg xmlns="http://www.w3.org/2000/svg" viewBox="0 0 373.12 380"><title>Asset 9</title><g id="Layer_2" data-name="Layer 2"><g id="Layer_1-2" data-name="Layer 1"><path d="M186.56,40a60,60,0,1,1-60,60,60.07,60.07,0,0,1,60-60m0-40a100,100,0,1,0,100,100,100,100,0,0,0-100-100Z"/><path d="M186.56,220a160,160,0,0,1,144.5,91.19,20,20,0,0,1-1.12,19.53A19.34,19.34,0,0,1,313.1,340H60a19.36,19.36,0,0,1-16.85-9.28,20,20,0,0,1-1.11-19.53A160,160,0,0,1,186.56,220m0-40A200,200,0,0,0,6,294c-19,39.9,9.84,86,54.06,86H313.1c44.22,0,73.1-46.14,54.06-86a200,200,0,0,0-180.6-114Z"/></g></g></svg>