<svg xmlns="http://www.w3.org/2000/svg" xmlns:xlink="http://www.w3.org/1999/xlink" viewBox="0 0 371.17 370"><defs><style>.cls-1,.cls-3{fill:none;stroke-linecap:round;stroke-miterlimit:10;stroke-width:40px;}.cls-1{stroke:#fff;filter:url(#luminosity-invert-noclip);}.cls-2{mask:url(#mask);}.cls-3{stroke:#000;}</style><filter id="luminosity-invert-noclip" x="0" y="70" width="371.17" height="300" filterUnits="userSpaceOnUse" color-interpolation-filters="sRGB"><feColorMatrix values="-1 0 0 0 1 0 -1 0 0 1 0 0 -1 0 1 0 0 0 1 0" result="invert"/><feFlood flood-color="#fff" result="bg"/><feBlend in="invert" in2="bg"/></filter><mask id="mask" x="0" y="70" width="371.17" height="300" maskUnits="userSpaceOnUse"><path class="cls-1" d="M235.58,150a50,50,0,0,1-100,0"/></mask></defs><title>Asset 13</title><g id="Layer_2" data-name="Layer 2"><g id="Layer_1-2" data-name="Layer 1"><g class="cls-2"><path d="M80,350a60,60,0,0,1-59.18-69.86L47,123.42A39.89,39.89,0,0,1,86.41,90H284.76a39.88,39.88,0,0,1,39.45,33.42l26.12,156.72A60,60,0,0,1,291.15,350Z"/><path d="M284.76,110a19.93,19.93,0,0,1,19.72,16.71L330.6,283.42A40,40,0,0,1,291.15,330H80a40,40,0,0,1-39.46-46.58L66.68,126.71A19.94,19.94,0,0,1,86.41,110H284.76m0-40H86.41a60,60,0,0,0-59.18,50.14L1.11,276.85A80,80,0,0,0,80,370H291.15a80,80,0,0,0,78.91-93.15L343.94,120.14A60,60,0,0,0,284.76,70Z"/></g><path class="cls-3" d="M135.58,70a50,50,0,0,1,100,0"/></g></g></svg>