<svg xmlns="http://www.w3.org/2000/svg" viewBox="0 0 371.17 370"><defs><style>.cls-1{fill:none;stroke:#000;stroke-linecap:round;stroke-miterlimit:10;stroke-width:40px;}</style></defs><title>Asset 12</title><g id="Layer_2" data-name="Layer 2"><g id="Layer_1-2" data-name="Layer 1"><path d="M284.76,110a19.93,19.93,0,0,1,19.72,16.71L330.6,283.42A40,40,0,0,1,291.15,330H80a40,40,0,0,1-39.46-46.58L66.68,126.71A19.94,19.94,0,0,1,86.41,110H284.76m0-40H86.41a60,60,0,0,0-59.18,50.14L1.11,276.85A80,80,0,0,0,80,370H291.15a80,80,0,0,0,78.91-93.15L343.94,120.14A60,60,0,0,0,284.76,70Z"/><path class="cls-1" d="M135.58,70a50,50,0,0,1,100,0"/><path class="cls-1" d="M235.58,150a50,50,0,0,1-100,0"/></g></g></svg>